<?xml version="1.0" encoding="UTF-8"?><svg id="Layer_1" xmlns="http://www.w3.org/2000/svg" viewBox="0 0 770.91 265.34"><defs><style>.cls-1,.cls-2{fill:#049dd6;}.cls-3{fill:#191e49;}.cls-4{fill:#231f20;font-family:MyriadPro-Regular, 'Myriad Pro';font-size:54.61px;}.cls-2,.cls-5{fill-rule:evenodd;}.cls-5{fill:#fff;}</style></defs><g><path class="cls-1" d="M269.65,44.39h21.1c2.55,0,5.22,.29,8.02,.88,2.79,.59,5.34,1.6,7.66,3.05,2.31,1.45,4.21,3.43,5.69,5.95,1.48,2.52,2.22,5.67,2.22,9.47,0,3.31-.6,6.17-1.81,8.59-1.21,2.42-2.83,4.4-4.86,5.95-2.04,1.55-4.38,2.71-7.03,3.47-2.66,.76-5.43,1.14-8.33,1.14h-15.83v34.76h-6.83V44.39Zm6.83,32.28h15.52c1.93,0,3.83-.22,5.69-.67,1.86-.45,3.52-1.17,4.97-2.17,1.45-1,2.62-2.33,3.52-3.98,.9-1.66,1.35-3.69,1.35-6.1s-.47-4.35-1.4-6-2.14-3.02-3.62-4.09c-1.48-1.07-3.19-1.84-5.12-2.33-1.93-.48-3.86-.72-5.79-.72h-15.1v26.07Z"/><path class="cls-1" d="M323.14,83.29c0-.9-.04-1.98-.1-3.26-.07-1.28-.12-2.57-.16-3.88-.04-1.31-.09-2.53-.16-3.67-.07-1.14-.1-2.02-.1-2.64h6.21c.07,1.79,.12,3.52,.15,5.17,.03,1.66,.12,2.73,.26,3.21,1.59-2.83,3.62-5.14,6.1-6.93,2.48-1.79,5.52-2.69,9.1-2.69,.62,0,1.22,.05,1.81,.16,.58,.1,1.19,.22,1.81,.36l-.72,6.1c-.83-.27-1.62-.41-2.38-.41-2.69,0-5.02,.43-6.98,1.29-1.97,.86-3.59,2.05-4.86,3.57-1.28,1.52-2.22,3.29-2.84,5.33-.62,2.04-.93,4.23-.93,6.57v26.07h-6.21v-34.35Z"/><path class="cls-1" d="M395.86,108.63c-2.42,3.66-5.4,6.28-8.95,7.86-3.55,1.59-7.47,2.38-11.74,2.38-3.66,0-6.97-.62-9.93-1.86-2.97-1.24-5.52-2.98-7.66-5.22-2.14-2.24-3.78-4.9-4.91-7.97-1.14-3.07-1.71-6.47-1.71-10.19s.58-6.9,1.76-9.93c1.17-3.03,2.83-5.67,4.97-7.91,2.14-2.24,4.66-4,7.55-5.28,2.9-1.28,6.1-1.91,9.62-1.91s6.88,.64,9.67,1.91c2.79,1.28,5.14,2.97,7.04,5.07,1.9,2.1,3.33,4.5,4.29,7.19,.97,2.69,1.45,5.42,1.45,8.17v4.35h-40.14c0,1.31,.26,2.98,.78,5.02,.52,2.03,1.46,4.02,2.85,5.95,1.38,1.93,3.22,3.59,5.53,4.97,2.31,1.38,5.29,2.07,8.95,2.07,3.17,0,6.24-.76,9.21-2.28,2.96-1.52,5.24-3.58,6.83-6.21l4.55,3.83Zm-4.76-18.93c0-2.14-.43-4.14-1.29-6-.86-1.86-2.04-3.5-3.52-4.91-1.48-1.41-3.24-2.53-5.28-3.36-2.04-.83-4.19-1.24-6.47-1.24-3.38,0-6.19,.69-8.43,2.07-2.24,1.38-4.02,2.97-5.33,4.76-1.31,1.79-2.24,3.54-2.79,5.22-.55,1.69-.83,2.84-.83,3.47h33.93Z"/><path class="cls-1" d="M405.28,90.32h25.55v5.59h-25.55v-5.59Z"/><path class="cls-1" d="M442.52,44.39h10.24l26.69,61.45,26.69-61.45h9.72V117.63h-6.83V53.08h-.21l-27.93,64.55h-3l-28.35-64.55h-.21V117.63h-6.83V44.39Z"/><path class="cls-1" d="M571.53,108.63c-2.42,3.66-5.4,6.28-8.95,7.86-3.55,1.59-7.47,2.38-11.74,2.38-3.66,0-6.97-.62-9.93-1.86-2.97-1.24-5.52-2.98-7.66-5.22-2.14-2.24-3.78-4.9-4.91-7.97-1.14-3.07-1.71-6.47-1.71-10.19s.58-6.9,1.76-9.93c1.17-3.03,2.83-5.67,4.97-7.91,2.14-2.24,4.66-4,7.55-5.28,2.9-1.28,6.1-1.91,9.62-1.91s6.88,.64,9.67,1.91c2.79,1.28,5.14,2.97,7.04,5.07,1.9,2.1,3.33,4.5,4.29,7.19,.97,2.69,1.45,5.42,1.45,8.17v4.35h-40.14c0,1.31,.26,2.98,.78,5.02,.52,2.03,1.46,4.02,2.85,5.95,1.38,1.93,3.22,3.59,5.53,4.97,2.31,1.38,5.29,2.07,8.95,2.07,3.17,0,6.24-.76,9.21-2.28,2.96-1.52,5.24-3.58,6.83-6.21l4.55,3.83Zm-4.76-18.93c0-2.14-.43-4.14-1.29-6-.86-1.86-2.04-3.5-3.52-4.91-1.48-1.41-3.24-2.53-5.28-3.36-2.04-.83-4.19-1.24-6.47-1.24-3.38,0-6.19,.69-8.43,2.07-2.24,1.38-4.02,2.97-5.33,4.76-1.31,1.79-2.24,3.54-2.79,5.22-.55,1.69-.83,2.84-.83,3.47h33.93Z"/><path class="cls-1" d="M626.56,109.25h-.21c-.97,1.66-2.17,3.09-3.62,4.29-1.45,1.21-3.02,2.21-4.71,3-1.69,.79-3.47,1.38-5.33,1.76-1.86,.38-3.69,.57-5.48,.57-3.66,0-7.03-.62-10.14-1.86-3.1-1.24-5.76-2.98-7.97-5.22-2.21-2.24-3.93-4.9-5.17-7.97-1.24-3.07-1.86-6.43-1.86-10.09s.62-7.02,1.86-10.09c1.24-3.07,2.96-5.72,5.17-7.97,2.21-2.24,4.86-3.98,7.97-5.22,3.1-1.24,6.48-1.86,10.14-1.86,1.79,0,3.62,.19,5.48,.57,1.86,.38,3.64,.97,5.33,1.76,1.69,.79,3.26,1.79,4.71,3,1.45,1.21,2.65,2.64,3.62,4.29h.21V39.42h6.21V117.63h-6.21v-8.38Zm.62-15.52c0-2.69-.52-5.22-1.55-7.6s-2.45-4.45-4.24-6.21c-1.79-1.76-3.9-3.16-6.31-4.19-2.42-1.03-5.04-1.55-7.86-1.55s-5.52,.52-7.86,1.55c-2.35,1.03-4.35,2.43-6,4.19s-2.91,3.83-3.78,6.21c-.86,2.38-1.29,4.91-1.29,7.6s.43,5.22,1.29,7.6c.86,2.38,2.12,4.45,3.78,6.21,1.66,1.76,3.65,3.16,6,4.19,2.34,1.03,4.97,1.55,7.86,1.55s5.45-.52,7.86-1.55c2.41-1.03,4.52-2.43,6.31-4.19,1.79-1.76,3.21-3.83,4.24-6.21s1.55-4.91,1.55-7.6Z"/><path class="cls-3" d="M335.55,174.27c0,6.41-1.19,11.95-3.57,16.6s-5.52,8.48-9.41,11.48c-3.9,3-8.29,5.21-13.19,6.62-4.9,1.41-9.86,2.12-14.9,2.12h-27.31v-73.24h26.48c5.17,0,10.28,.6,15.31,1.81,5.03,1.21,9.52,3.21,13.45,6,3.93,2.79,7.1,6.54,9.52,11.22,2.41,4.69,3.62,10.48,3.62,17.38Zm-18.41,0c0-4.14-.67-7.57-2.02-10.29-1.34-2.72-3.14-4.9-5.38-6.52-2.24-1.62-4.79-2.78-7.66-3.47-2.86-.69-5.81-1.03-8.85-1.03h-8.79v42.83h8.38c3.17,0,6.22-.36,9.16-1.09,2.93-.72,5.52-1.91,7.76-3.57,2.24-1.66,4.03-3.86,5.38-6.62,1.34-2.76,2.02-6.17,2.02-10.24Z"/><path class="cls-3" d="M397.41,185.96v2.07c0,.69-.04,1.34-.1,1.97h-37.35c.14,1.45,.57,2.76,1.29,3.93,.72,1.17,1.66,2.19,2.79,3.05,1.14,.86,2.41,1.54,3.83,2.02,1.41,.48,2.88,.72,4.4,.72,2.69,0,4.97-.5,6.83-1.5,1.86-1,3.38-2.29,4.55-3.88l11.79,7.45c-2.42,3.52-5.6,6.22-9.57,8.12-3.97,1.9-8.57,2.85-13.81,2.85-3.86,0-7.52-.6-10.97-1.81-3.45-1.21-6.47-2.96-9.05-5.28-2.59-2.31-4.62-5.15-6.1-8.54-1.48-3.38-2.22-7.24-2.22-11.59s.72-8.02,2.17-11.43,3.41-6.31,5.9-8.69,5.41-4.22,8.79-5.53c3.38-1.31,7.03-1.97,10.97-1.97s7.28,.64,10.45,1.91c3.17,1.28,5.9,3.12,8.17,5.53,2.28,2.42,4.05,5.35,5.33,8.79,1.28,3.45,1.91,7.38,1.91,11.79Zm-15.62-6.52c0-2.69-.85-5-2.53-6.93-1.69-1.93-4.23-2.9-7.6-2.9-1.66,0-3.17,.26-4.55,.78-1.38,.52-2.59,1.23-3.62,2.12-1.03,.9-1.86,1.95-2.48,3.16-.62,1.21-.97,2.47-1.03,3.78h21.83Z"/><path class="cls-3" d="M442,145.41c-.62-.21-1.34-.38-2.17-.52-.83-.14-1.66-.21-2.48-.21-1.59,0-2.86,.28-3.83,.83-.97,.55-1.73,1.29-2.28,2.22-.55,.93-.93,1.98-1.14,3.16-.21,1.17-.31,2.35-.31,3.52v5.17h11.48v12.62h-11.48v38.9h-16.97v-38.9h-9.41v-12.62h9.41v-4.97c0-3.17,.34-6.19,1.03-9.05,.69-2.86,1.88-5.38,3.57-7.55,1.69-2.17,3.96-3.9,6.83-5.17,2.86-1.28,6.43-1.91,10.71-1.91,1.45,0,2.88,.09,4.29,.26,1.41,.17,2.71,.43,3.88,.78l-1.14,13.45Z"/><path class="cls-3" d="M500.87,185.96v2.07c0,.69-.04,1.34-.1,1.97h-37.35c.14,1.45,.57,2.76,1.29,3.93,.72,1.17,1.66,2.19,2.79,3.05,1.14,.86,2.41,1.54,3.83,2.02,1.41,.48,2.88,.72,4.4,.72,2.69,0,4.97-.5,6.83-1.5,1.86-1,3.38-2.29,4.55-3.88l11.79,7.45c-2.42,3.52-5.6,6.22-9.57,8.12-3.97,1.9-8.57,2.85-13.81,2.85-3.86,0-7.52-.6-10.97-1.81-3.45-1.21-6.47-2.96-9.05-5.28-2.59-2.31-4.62-5.15-6.1-8.54-1.48-3.38-2.22-7.24-2.22-11.59s.72-8.02,2.17-11.43,3.41-6.31,5.9-8.69,5.41-4.22,8.79-5.53c3.38-1.31,7.03-1.97,10.97-1.97s7.28,.64,10.45,1.91c3.17,1.28,5.9,3.12,8.17,5.53,2.28,2.42,4.05,5.35,5.33,8.79,1.28,3.45,1.91,7.38,1.91,11.79Zm-15.62-6.52c0-2.69-.85-5-2.53-6.93-1.69-1.93-4.23-2.9-7.6-2.9-1.66,0-3.17,.26-4.55,.78-1.38,.52-2.59,1.23-3.62,2.12-1.03,.9-1.86,1.95-2.48,3.16-.62,1.21-.97,2.47-1.03,3.78h21.83Z"/><path class="cls-3" d="M545.25,211.1v-28.14c0-1.45-.12-2.83-.36-4.14-.24-1.31-.64-2.46-1.19-3.47-.55-1-1.33-1.79-2.33-2.38-1-.58-2.26-.88-3.78-.88s-2.84,.29-3.98,.88c-1.14,.59-2.09,1.4-2.84,2.43-.76,1.03-1.33,2.22-1.71,3.57-.38,1.34-.57,2.74-.57,4.19v27.93h-17.07v-51.52h16.45v7.14h.21c.62-1.1,1.43-2.19,2.43-3.26,1-1.07,2.17-1.98,3.52-2.74,1.34-.76,2.81-1.38,4.4-1.86,1.59-.48,3.27-.72,5.07-.72,3.45,0,6.38,.62,8.79,1.86,2.41,1.24,4.36,2.85,5.85,4.81,1.48,1.97,2.55,4.23,3.21,6.78,.65,2.55,.98,5.1,.98,7.66v31.86h-17.07Z"/><path class="cls-3" d="M612.08,211.1v-6.72h-.21c-1.66,2.62-4.02,4.64-7.09,6.05-3.07,1.41-6.33,2.12-9.78,2.12-3.86,0-7.31-.76-10.35-2.28-3.04-1.52-5.6-3.53-7.71-6.05-2.1-2.52-3.71-5.43-4.81-8.74-1.1-3.31-1.66-6.76-1.66-10.35s.57-7.02,1.71-10.29c1.14-3.27,2.76-6.16,4.86-8.64,2.1-2.48,4.66-4.45,7.66-5.9,3-1.45,6.36-2.17,10.09-2.17s7,.72,9.62,2.17c2.62,1.45,4.66,3.04,6.1,4.76h.21v-32.17h16.97v78.21h-15.62Zm-.62-25.86c0-1.66-.29-3.27-.88-4.86-.59-1.59-1.41-3-2.48-4.24-1.07-1.24-2.36-2.24-3.88-3-1.52-.76-3.24-1.14-5.17-1.14s-3.76,.38-5.28,1.14c-1.52,.76-2.79,1.74-3.83,2.95-1.03,1.21-1.81,2.6-2.33,4.19-.52,1.59-.78,3.21-.78,4.86s.26,3.29,.78,4.91c.52,1.62,1.29,3.05,2.33,4.29,1.03,1.24,2.31,2.24,3.83,3,1.52,.76,3.27,1.14,5.28,1.14s3.65-.38,5.17-1.14c1.52-.76,2.81-1.76,3.88-3,1.07-1.24,1.9-2.65,2.48-4.24,.59-1.59,.88-3.21,.88-4.86Z"/><path class="cls-3" d="M690.18,185.96v2.07c0,.69-.04,1.34-.1,1.97h-37.35c.14,1.45,.57,2.76,1.29,3.93,.72,1.17,1.66,2.19,2.79,3.05,1.14,.86,2.41,1.54,3.83,2.02,1.41,.48,2.88,.72,4.4,.72,2.69,0,4.97-.5,6.83-1.5,1.86-1,3.38-2.29,4.55-3.88l11.79,7.45c-2.42,3.52-5.6,6.22-9.57,8.12-3.97,1.9-8.57,2.85-13.81,2.85-3.86,0-7.52-.6-10.97-1.81-3.45-1.21-6.47-2.96-9.05-5.28-2.59-2.31-4.62-5.15-6.1-8.54-1.48-3.38-2.22-7.24-2.22-11.59s.72-8.02,2.17-11.43,3.41-6.31,5.9-8.69,5.41-4.22,8.79-5.53c3.38-1.31,7.03-1.97,10.97-1.97s7.28,.64,10.45,1.91c3.17,1.28,5.9,3.12,8.17,5.53,2.28,2.42,4.05,5.35,5.33,8.79,1.28,3.45,1.91,7.38,1.91,11.79Zm-15.62-6.52c0-2.69-.85-5-2.53-6.93-1.69-1.93-4.23-2.9-7.6-2.9-1.66,0-3.17,.26-4.55,.78-1.38,.52-2.59,1.23-3.62,2.12-1.03,.9-1.86,1.95-2.48,3.16-.62,1.21-.97,2.47-1.03,3.78h21.83Z"/><path class="cls-3" d="M734.15,173.54c-.76-.21-1.5-.34-2.22-.41-.72-.07-1.43-.1-2.12-.1-2.28,0-4.19,.41-5.74,1.24-1.55,.83-2.79,1.82-3.72,2.99-.93,1.17-1.6,2.44-2.02,3.82-.41,1.38-.62,2.58-.62,3.61v26.41h-16.97v-51.46h16.35v7.45h.21c1.31-2.64,3.17-4.79,5.59-6.46,2.41-1.67,5.21-2.5,8.38-2.5,.69,0,1.36,.04,2.02,.1,.65,.07,1.19,.17,1.6,.31l-.72,15Z"/></g><path class="cls-2" d="M161.57,43.17C171.16,7.21,113.31-6.85,79.82,3.12l12.57,8.01c-12.44,1.96-32.45,17.71-35.86,21.6l9.03,3.84c-1.55,2.01-2.8,4.24-4.08,6.6H19.19v43.05c-5.8,3.07-12.21,5.64-19.19,6.81,7.22,8.97,9.79,15.45,19.19,18.51v26.83c0,87.97,95.89,124.06,99.98,125.55l3.87,1.42,3.87-1.42c4.08-1.5,99.98-37.59,99.98-125.56V43.17h-65.32Z"/><path class="cls-5" d="M114.97,106.54l6.22-2.04-.35,44.79-6.22-2.5,.35-40.25Zm-12.1,2.04l6.11-1.16-.35,36.58-6.21-3.17,.46-32.25Zm-11.69,.03l5.82-.32-.35,28.21-6.02-3.58,.55-24.31Zm-11.92-9.86s20.71,10.24,49.32-4.54l.47,65.14c-16.36-4.38-54.22-17.16-53.4-42.34,0,0,4.25-6.92,3.61-18.27Zm57.6,5.53v3.11l3.79,1.05,.29,39.2,2.73-.99-.41-40.19-6.4-2.18Zm12.16,3.34v2.7l3.79,.03,.29,31.64,2.73-1.34-.41-32.28-6.4-.76Zm12.33,.84v2.33l3.78,.03-.09,23.73,2.62-1.75-.27-23.82-6.05-.52Zm6.13-15.17s-4.25-33.95-43.32-35.88c0,0-32.67-2.92-44.9,41.33,13.21,.6,31.24-5.9,45.03-17.41,0,0,8.77,6.11,14.35-4.39,0,0,3.12-9.77-5.05-13.89,0,0,20.6,.8,33.89,30.23m-42.58-45.82c-2.82,0-5.11,2.24-5.2,5.04,1.66-.44,3.4-.68,5.2-.68s3.54,.24,5.2,.68c-.09-2.8-2.39-5.04-5.2-5.04m-54.46,109.56l-13.05,7.18s-.13,14.75,16.71,29.37c0,0-16.58-5.87-27.41-16.84l6.79,20.49,44.12,23.11,1.96-5.16-11.62-10.97,13.84,5.81,4.37-5.22s-35.05-29.04-37.66-40.66l1.96-7.11Zm112.59,7.96l-8.09,18.41c13.84-7.31,14.88-18.8,14.88-18.8l-14.49-8.22,7.7,8.62Zm5.48,28.13l-23.37,20.76,29.37-16.97,7.18-20.49-7.05-1.7-6.14,18.41Zm-59.48,14.55c-5.66,0-10.25,4.59-10.25,10.25s4.59,10.25,10.25,10.25,10.25-4.59,10.25-10.25-4.59-10.25-10.25-10.25m10.1-.22c2.9,2.74,4.71,6.62,4.71,10.92,0,8.29-6.72,15.01-15.01,15.01s-15.01-6.72-15.01-15.01c0-4.3,1.81-8.18,4.71-10.92-4.47,3.21-7.39,8.46-7.39,14.38,0,9.77,7.92,17.69,17.69,17.69s17.69-7.92,17.69-17.69c0-5.93-2.92-11.17-7.39-14.38m-16.34,12.39c0-4.45,3.6-8.05,8.05-8.05,1.66,0,3.2,.5,4.47,1.36-.26-.49-.56-.96-.91-1.38-1.39-1.14-3.16-1.82-5.1-1.82-4.45,0-8.05,3.6-8.05,8.05,0,1.94,.68,3.71,1.82,5.1,.2,.16,.41,.32,.62,.46-.58-1.11-.91-2.38-.91-3.72m35.57-49.93c-11.81,10.7-29.26,15.7-29.26,15.7l-.52-8.51c-56.77-26.29-52.94-60.11-52.94-60.11,1.29,42.03,15.22,62.65,53.18,76.53,18.26-5.7,29.55-23.61,29.55-23.61m-23.5-117.88c16.14,6.99,36.01-30.18-5.53-39.52,0,0,4.4,2.92,6.2,14.39,0,0-13.52-19.77-38.67-17.84,0,0,8.43,2.07,12.44,6.91,0,0-18.79-1.11-34.27,16.58,0,0,8.01-3.87,15.34-4.7,0,0-12.43,4.98-23.21,22.94-10.78,17.96-21.14,18.1-28.19,19.48,0,0,6.36,2.9,13.68,1.94,0,0-14.09,22.25-40.35,23.9,13.85,11.23,31.61,7.15,43.52-4.56,0,0-9.12,4.28-17.69,4.7,0,0,14.92-5.39,28.19-23.21,0,0-6.08,3.18-10.09,4.7,0,0,7.6-5.25,13.68-14.09-2.76,1.15-5.53,2.3-8.29,3.45,0,0,8.7-17.27,25.7-25.29,16.99-8.01,23.07-6.22,23.07-6.22,0,0-3.59-3.45-8.29-4.14-4.7-.69-10.64,.83-10.64,.83,0,0,11.05-5.94,20.86-2.35,9.81,3.59,14.51,5.94,14.51,5.94,0,0-4.28-8.29-8.98-12.99,0,0,13.04,8.32,17.27,15.34-.23-2.07-.46-4.15-.69-6.22,0,0,6.22,5.94,7.46,9.12,0,0,.62-6.67-1.38-11.33,10.56,6.85,8.09,23.07-5.67,22.24M52.79,100.98c-25.92,7.11-14.29,35.57-23.35,49.47,0,0,17.13-1.1,22.52-23.9,0,0-5.11,6.77-12.16,11.61,2.87-17.51-1.21-20.47,12.99-37.17"/><text class="cls-4" transform="translate(737.11 179.44)"><tspan x="0" y="0">™</tspan></text></svg>